<?xml version="1.0" encoding="utf-8"?>
<!-- Generator: Adobe Adobe Illustrator 24.2.0, SVG Export Plug-In . SVG Version: 6.00 Build 0)  -->
<svg version="1.1" id="OBERSCHRÄNKE" xmlns="http://www.w3.org/2000/svg" xmlns:xlink="http://www.w3.org/1999/xlink" x="0px"
	 y="0px" width="1418px" height="1626px" viewBox="0 0 1418 1626" style="enable-background:new 0 0 1418 1626;"
	 xml:space="preserve">
<style type="text/css">
	.st0{fill:none;stroke:#000000;stroke-width:4;stroke-miterlimit:10;}
	.st1{fill:none;stroke:#000000;stroke-width:3;stroke-miterlimit:10;}
	.st2{fill:#FFFFFF;stroke:#000000;stroke-width:4;stroke-miterlimit:10;}
	.st3{clip-path:url(#SVGID_2_);}
	.st4{clip-path:url(#SVGID_4_);}
	.st5{fill:none;stroke:#000000;stroke-width:7;stroke-miterlimit:10;}
	.st6{fill:#FFFFFF;stroke:#000000;stroke-width:4;stroke-miterlimit:10;stroke-dasharray:15,9,15,9,15,9;}
	.st7{fill:none;stroke:#000000;stroke-width:8;stroke-miterlimit:10;}
</style>
<rect x="112.26" y="864.94" class="st0" width="104.72" height="221"/>
<line class="st0" x1="217.03" y1="865.36" x2="113.05" y2="1085.61"/>
<g>
	<line class="st1" x1="497.52" y1="968.87" x2="527" y2="941.65"/>
	<line class="st1" x1="520.52" y1="968.87" x2="550" y2="941.65"/>
</g>
<g>
	<line class="st1" x1="678.52" y1="1133.28" x2="708" y2="1106.06"/>
	<line class="st1" x1="701.52" y1="1133.28" x2="731" y2="1106.06"/>
</g>
<rect id="BLENDE78" x="1278.49" y="145.94" class="st0" width="14.17" height="221.1"/>
<g id="DUNSTABZUG">
	<rect x="683.45" y="307.51" class="st2" width="255.12" height="14.17"/>
	<rect x="777.34" y="104.51" class="st2" width="70.87" height="203"/>
</g>
<g id="GLAS">
	<g>
		<line class="st1" x1="852.97" y1="478.3" x2="882.46" y2="451.07"/>
		<line class="st1" x1="875.97" y1="478.3" x2="905.46" y2="451.07"/>
	</g>
	<rect x="683.45" y="321.68" class="st0" width="255.12" height="198.43"/>
</g>
<rect id="NV54_2_" x="112.26" y="1086.04" class="st0" width="342.17" height="153.07"/>
<rect id="NV54_3_" x="780.04" y="1086.04" class="st0" width="155.22" height="153.07"/>
<g id="WANGE25">
	<rect x="548.87" y="531.45" class="st2" width="7.09" height="259.1"/>
</g>
<g id="WANGE25_2_">
	<rect x="453.64" y="361.55" class="st2" width="7.09" height="429"/>
</g>
<g id="WANGE25_3_">
	<rect x="105.96" y="361.55" class="st2" width="7.09" height="429"/>
</g>
<g id="WANGE25_1_">
	<rect x="918.72" y="1250.45" class="st2" width="7.09" height="259.1"/>
</g>
<rect id="SOCKEL" x="555.95" y="752.55" class="st2" width="736.82" height="38"/>
<rect id="SOCKEL_2_" x="113.05" y="752.55" class="st2" width="340.59" height="38"/>
<rect id="SOCKEL_1_" x="112.26" y="1471.55" class="st2" width="806" height="38"/>
<g>
	<rect x="454.05" y="885.89" class="st2" width="325.98" height="340.16"/>
	<rect x="474.57" y="906.9" class="st2" width="285.7" height="298.12"/>
</g>
<g id="UAK60_1_">
	<rect x="896.02" y="531.45" class="st2" width="170.08" height="221.1"/>
	<rect x="896.02" y="531.45" class="st2" width="170.08" height="36.85"/>
	<rect x="896.02" y="568.3" class="st2" width="170.08" height="73.7"/>
	<rect x="896.02" y="642" class="st2" width="170.08" height="110.55"/>
</g>
<g id="UHS60">
	
		<rect x="725.97" y="531.45" transform="matrix(-1 -1.224647e-16 1.224647e-16 -1 1622.0244 1284)" class="st2" width="170.08" height="221.1"/>
	
		<rect x="725.97" y="701.53" transform="matrix(-1 -1.224647e-16 1.224647e-16 -1 1622.0242 1454.0786)" class="st2" width="170.08" height="51.02"/>
	<g>
		
			<rect x="725.97" y="531.45" transform="matrix(-1 -1.224647e-16 1.224647e-16 -1 1622.0244 1232.9763)" class="st2" width="170.08" height="170.08"/>
		<rect x="741.51" y="577.38" class="st2" width="139" height="108"/>
		<rect x="738.51" y="563.42" width="145" height="6.46"/>
		<g>
			<defs>
				<rect id="SVGID_1_" x="822.81" y="545.78" width="67.6" height="14.21"/>
			</defs>
			<clipPath id="SVGID_2_">
				<use xlink:href="#SVGID_1_"  style="overflow:visible;"/>
			</clipPath>
			<g class="st3">
				<ellipse cx="880.55" cy="549.97" rx="4.54" ry="4.19"/>
				<ellipse cx="862.82" cy="549.97" rx="4.54" ry="4.19"/>
				<ellipse cx="845.08" cy="549.97" rx="4.54" ry="4.19"/>
				<ellipse cx="827.35" cy="549.97" rx="4.54" ry="4.19"/>
			</g>
		</g>
		<rect x="742.1" y="545.78" class="st2" width="71" height="10.15"/>
		<line class="st1" x1="752.37" y1="616.49" x2="781.86" y2="589.27"/>
		<line class="st1" x1="775.37" y1="616.49" x2="804.86" y2="589.27"/>
	</g>
</g>
<g>
	
		<rect x="283.34" y="361.37" transform="matrix(-1 -1.224647e-16 1.224647e-16 -1 736.7678 892.8188)" class="st2" width="170.08" height="170.08"/>
	<rect x="298.88" y="407.3" class="st2" width="139" height="108"/>
	<rect x="295.88" y="393.35" width="145" height="6.46"/>
	<g>
		<defs>
			<rect id="SVGID_3_" x="380.19" y="375.7" width="67.6" height="14.21"/>
		</defs>
		<clipPath id="SVGID_4_">
			<use xlink:href="#SVGID_3_"  style="overflow:visible;"/>
		</clipPath>
		<g class="st4">
			<ellipse cx="437.92" cy="379.89" rx="4.54" ry="4.19"/>
			<ellipse cx="420.19" cy="379.89" rx="4.54" ry="4.19"/>
			<ellipse cx="402.46" cy="379.89" rx="4.54" ry="4.19"/>
			<ellipse cx="384.72" cy="379.89" rx="4.54" ry="4.19"/>
		</g>
	</g>
	<rect x="299.47" y="375.7" class="st2" width="71" height="10.15"/>
	<line class="st1" x1="309.74" y1="446.41" x2="339.23" y2="419.19"/>
	<line class="st1" x1="332.74" y1="446.41" x2="362.23" y2="419.19"/>
</g>
<g id="UPE65">
	<rect x="1108.52" y="531.45" class="st0" width="184.25" height="221.1"/>
	<rect x="1122.69" y="531.45" class="st0" width="170.08" height="221.1"/>
	<line class="st0" x1="1122.69" y1="531.45" x2="1289.73" y2="750.3"/>
	<line class="st0" x1="1122.69" y1="752.55" x2="1292.77" y2="531.45"/>
</g>
<rect x="543.75" y="520.11" class="st0" width="749" height="11.34"/>
<g id="OF100">
	<rect x="995.02" y="145.94" class="st0" width="283.46" height="221.1"/>
	<rect x="995.02" y="145.94" class="st0" width="283.46" height="110.55"/>
	<rect x="995.02" y="256.49" class="st0" width="283.46" height="110.55"/>
	<rect x="1009.2" y="272.08" class="st0" width="255.12" height="79.37"/>
	<line class="st1" x1="1027.48" y1="313.71" x2="1056.97" y2="286.49"/>
	<line class="st1" x1="1050.48" y1="313.71" x2="1079.97" y2="286.49"/>
</g>
<rect id="NV54_1_" x="938.57" y="367.04" class="st0" width="354.09" height="153.07"/>
<rect id="NV54" x="543.75" y="367.04" class="st0" width="139.7" height="153.07"/>
<rect x="446.97" y="1224.94" width="340.16" height="14.17"/>
<g>
	<rect x="1002.89" y="887.14" class="st0" width="283.46" height="623.62"/>
	<rect x="1031.52" y="950.13" class="st0" width="226.2" height="497.65"/>
</g>
<g>
	<path class="st5" d="M463.56,1181.43h306H463.56z"/>
	<path class="st5" d="M463.56,1164.43h306H463.56z"/>
	<path class="st5" d="M463.56,1147.43h306H463.56z"/>
	<path class="st5" d="M463.56,1130.43h306H463.56z"/>
	<path class="st5" d="M463.56,1113.43h306H463.56z"/>
	<path class="st5" d="M463.56,1096.43h306H463.56z"/>
	<path class="st5" d="M463.56,1079.43h306H463.56z"/>
</g>
<g id="Untersucht-nie">
	<g id="UAK60">
		<rect x="555.92" y="531.45" class="st2" width="170.08" height="221.1"/>
		<rect x="555.92" y="531.45" class="st2" width="170.08" height="36.85"/>
		<rect x="555.92" y="568.3" class="st2" width="170.08" height="73.7"/>
		<rect x="555.92" y="642" class="st2" width="170.08" height="110.55"/>
	</g>
	<g id="UAK60_5_">
		<rect x="113.05" y="361.55" class="st2" width="170.08" height="391"/>
		<rect x="113.05" y="642" class="st2" width="170.08" height="110.55"/>
	</g>
	<g id="UAK60_4_">
		<rect x="283.34" y="531.45" class="st2" width="170.08" height="221.1"/>
		<rect x="283.34" y="531.45" class="st2" width="170.08" height="36.85"/>
		<rect x="283.34" y="568.3" class="st2" width="170.08" height="73.7"/>
		<rect x="283.34" y="642" class="st2" width="170.08" height="110.55"/>
	</g>
	<g id="UF15_4_">
		<g id="UF15">
			<rect x="1066.07" y="531.45" class="st2" width="42.52" height="221.1"/>
		</g>
		<g id="UF15_1_">
			<rect x="1066.07" y="531.45" class="st2" width="42.52" height="36.85"/>
		</g>
		<g id="UF15_2_">
			<rect x="1066.07" y="568.3" class="st2" width="42.52" height="36.85"/>
		</g>
		<g id="UF15_3_">
			<rect x="1066.07" y="605.15" class="st2" width="42.52" height="36.85"/>
		</g>
		<g>
			<circle cx="1087.33" cy="617.65" r="5.25"/>
			<circle cx="1087.33" cy="581.15" r="5.25"/>
			<circle cx="1087.33" cy="544.65" r="5.25"/>
		</g>
	</g>
</g>
<g id="UAK60_3_">
	<rect x="804.64" y="1250.45" class="st2" width="113.39" height="221.1"/>
	<rect x="804.64" y="1250.45" class="st2" width="113.39" height="36.85"/>
	<rect x="804.64" y="1287.3" class="st2" width="113.39" height="73.7"/>
	<rect x="804.64" y="1361" class="st2" width="113.39" height="110.55"/>
</g>
<g id="U60">
	<rect x="296.51" y="1250.45" class="st2" width="170.08" height="221.1"/>
	<rect x="296.51" y="1250.45" class="st2" width="170.08" height="36.85"/>
</g>
<g id="GS60">
	<rect x="465.56" y="1250.45" class="st2" width="170.08" height="221.1"/>
	<rect x="465.56" y="1250.45" class="st2" width="170.08" height="36.85"/>
	<line class="st6" x1="634.56" y1="1471.55" x2="465.56" y2="1288.3"/>
	<line class="st6" x1="465.56" y1="1471.02" x2="635.64" y2="1286.76"/>
</g>
<g id="UAK60_2_">
	<rect x="634.56" y="1250.45" class="st2" width="170.08" height="221.1"/>
	<rect x="634.56" y="1250.45" class="st2" width="170.08" height="36.85"/>
</g>
<g id="UPE65_1_">
	<rect x="112.26" y="1250.45" class="st0" width="184.25" height="221.1"/>
	<rect x="112.26" y="1250.45" class="st0" width="170.08" height="221.1"/>
	<line class="st0" x1="282.34" y1="1250.45" x2="115.3" y2="1469.3"/>
	<line class="st0" x1="282.34" y1="1471.55" x2="112.26" y2="1250.45"/>
</g>
<g>
	<path class="st0" d="M668.05,1251.45v-1h121.5v1c0,13.81-11.19,25-25,25h-71.5C679.25,1276.45,668.05,1265.26,668.05,1251.45z"/>
	<rect x="548.56" y="1239.11" class="st0" width="256.08" height="11.34"/>
	<g>
		<path class="st7" d="M676.14,1239.11l-0.14-56.65c-0.05-17.9,14.97-32.17,32.85-31.2h0c3.76,0.2,7.23,2.11,9.42,5.17l14.05,19.67"
			/>
		<line class="st7" x1="676" y1="1225.83" x2="660.76" y2="1204.11"/>
		<line class="st0" x1="647.73" y1="1213.92" x2="662.44" y2="1204.11"/>
	</g>
</g>
<rect x="112.26" y="1239.11" class="st2" width="823" height="11.34"/>
<rect x="105.97" y="354.28" class="st2" width="354.75" height="7.09"/>
<rect x="541.8" y="315.98" width="127.56" height="7.09"/>
<rect x="541.8" y="252.94" width="127.56" height="7.09"/>
</svg>
